# xmcd
#
# Track frame offsets: 
#        183
#        25320
#        59008
#        85845
#        111570
#        115008
#        131693
#        150258
#        179808
#        211083
#
# Disc length: 3138 seconds
#
# Revision: 0
# Processed by: cddbd v1.5PL3 Copyright (c) Steve Scherf et al.
# Submitted via: ExactAudioCopy v0.95a3
#
DISCID=890c400a
DTITLE=Alaap and Asha Bhosle - Chham Chham Nachdi Phiran
DYEAR=1989
DGENRE=Blues
TTITLE0=Chhalla Mere Mitran Da
TTITLE1=Chham Chham Nachdi Phiran
TTITLE2=Lage Khand Toon Gwawandan Mithi
TTITLE3=Lageya Ishq Bura
TTITLE4=Interlude
TTITLE5=Khabardar
TTITLE6=Munde Kanan Wich Mundran Pake
TTITLE7=Koh Koh Lame Waal
TTITLE8=Holi Holi Wanga Noon Chadian
TTITLE9=Chhaal Maarke Gidhe De Wich Aayee
EXTD=
EXTT0=
EXTT1=
EXTT2=
EXTT3=
EXTT4=
EXTT5=
EXTT6=
EXTT7=
EXTT8=
EXTT9=
PLAYORDER=
